<?xml version="1.0" standalone="no"?>
<!DOCTYPE svg PUBLIC "-//W3C//DTD SVG 20010904//EN"
 "http://www.w3.org/TR/2001/REC-SVG-20010904/DTD/svg10.dtd">
<svg version="1.0" xmlns="http://www.w3.org/2000/svg"
 width="320.000000pt" height="320.000000pt" viewBox="0 0 320.000000 320.000000"
 preserveAspectRatio="xMidYMid meet">
<metadata>
Created by potrace 1.14, written by Peter Selinger 2001-2017
</metadata>
<g transform="translate(0.000000,320.000000) scale(0.100000,-0.100000)"
fill="#000000" stroke="none">
<path d="M1773 3151 c-47 -44 -55 -193 -14 -271 13 -25 21 -59 21 -90 0 -47
-5 -55 -32 -51 -4 0 -7 -27 -6 -62 1 -124 7 -114 -70 -114 l-68 -1 0 87 c0 80
-1 86 -21 85 -19 0 -20 5 -21 100 0 139 1 135 -19 130 -16 -4 -18 -17 -16 -97
3 -101 -2 -141 -17 -132 -6 4 -18 4 -29 0 -16 -5 -18 -15 -16 -85 2 -44 2 -80
1 -81 0 0 -31 -3 -68 -5 l-68 -5 -1 53 c-2 120 -2 123 -27 124 -12 1 -26 5
-30 8 -4 4 -8 51 -8 104 -2 124 -1 122 -19 116 -11 -5 -15 -30 -17 -117 -3
-100 -5 -112 -20 -109 -16 3 -18 -7 -18 -87 l0 -89 -70 0 -70 0 0 90 c0 83 -2
90 -18 86 -17 -5 -18 2 -18 71 1 63 4 76 19 79 14 3 17 16 17 83 l0 79 -65 0
c-45 0 -65 -4 -66 -12 -1 -7 -2 -43 -3 -80 -1 -67 -1 -68 25 -68 26 0 26 0 24
-72 -3 -91 -1 -85 -27 -84 -26 1 -25 3 -27 -99 l-1 -75 -67 2 -68 3 0 84 c-1
57 -5 86 -13 89 -8 2 -12 33 -12 98 l0 94 -285 0 -285 0 0 25 c0 13 -7 43 -16
65 -18 45 -55 63 -80 38 -43 -43 -53 -209 -16 -272 32 -56 70 -45 103 30 l17
42 256 -1 c141 0 256 -3 257 -6 0 -3 1 -30 3 -58 1 -42 -2 -53 -14 -54 -59 -4
-55 3 -55 -89 l0 -85 -75 -2 c-41 -1 -80 -2 -87 -2 -8 -1 -11 -51 -11 -173 0
-95 -1 -178 -1 -184 -1 -6 -23 -10 -56 -9 -48 2 -54 0 -57 -19 -3 -19 -10 -21
-66 -21 -59 -1 -63 1 -68 25 -16 71 -50 115 -81 103 -30 -11 -55 -83 -55 -157
0 -105 38 -178 85 -161 16 7 47 68 47 95 0 22 18 27 85 20 l50 -5 0 -43 c0
-23 2 -42 5 -43 3 0 29 -1 58 -2 42 -1 52 -5 53 -19 1 -23 1 -141 0 -171 -1
-22 -5 -23 -56 -22 l-55 2 0 -37 0 -38 -100 -1 c-91 -2 -100 0 -100 17 0 41
-31 109 -55 120 -21 10 -28 8 -45 -10 -54 -58 -53 -235 1 -289 11 -11 27 -19
35 -17 14 3 46 52 58 91 5 15 19 17 107 17 l101 0 -4 -25 c-7 -32 4 -38 64
-38 29 1 48 -3 49 -10 3 -49 0 -189 -4 -194 -4 -3 -30 -6 -59 -7 -49 -1 -53
-3 -53 -26 l0 -25 -133 0 -132 0 0 -27 c0 -16 4 -28 10 -28 6 0 10 -103 10
-278 0 -152 0 -314 0 -359 l0 -83 278 1 c152 0 288 0 302 0 l25 -1 -1 -123
c-1 -67 -2 -132 -3 -143 -1 -20 -6 -21 -88 -20 l-87 2 -14 57 c-23 93 -73 111
-107 40 -38 -79 -25 -226 22 -263 31 -24 55 -14 73 30 7 16 15 30 19 31 3 0
56 1 116 2 l110 2 3 192 2 192 96 3 c52 2 101 1 108 -2 21 -9 13 -119 -12
-167 -38 -74 -28 -217 19 -264 18 -18 23 -19 42 -6 37 24 51 66 51 152 1 59
-4 89 -18 115 -12 22 -20 60 -21 102 l-3 67 82 3 c44 2 101 2 126 0 l46 -3 -1
-187 0 -187 23 -1 c25 -1 23 -18 23 214 0 110 3 154 12 158 7 2 63 5 125 7
106 2 112 1 113 -18 1 -11 2 -96 3 -189 1 -167 1 -169 24 -172 l22 -4 0 189
c0 220 -15 198 131 193 l86 -3 -1 -181 c-1 -99 1 -183 4 -186 3 -4 11 -8 18
-10 14 -2 13 -10 14 216 0 131 3 162 14 163 18 0 151 0 207 -1 l43 0 -1 -51
c0 -43 -4 -53 -21 -59 -19 -7 -20 -16 -19 -141 l0 -134 67 -3 66 -3 0 141 c1
139 0 141 -21 138 -20 -3 -22 2 -25 54 l-3 57 83 3 c46 2 95 2 110 0 l27 -3 1
-186 c0 -103 3 -189 6 -192 3 -3 81 -6 172 -6 l166 0 11 -37 c12 -43 38 -78
59 -78 22 0 55 47 62 89 12 60 11 103 -4 156 -17 61 -28 75 -57 75 -30 0 -46
-21 -60 -78 l-12 -47 -154 0 -154 0 0 153 -1 152 46 0 c25 1 181 1 346 1 l302
-1 4 23 c2 12 4 175 3 362 l0 340 -185 0 -185 0 -1 58 -2 57 59 0 c59 0 59 0
59 30 0 33 -7 31 106 32 52 1 69 -3 76 -16 5 -9 7 -16 4 -16 -3 0 3 -15 13
-32 14 -26 24 -33 47 -33 24 0 32 7 48 39 27 54 27 167 2 224 -40 89 -93 59
-120 -69 -5 -25 -7 -26 -88 -25 l-83 1 -5 35 c-5 37 -5 37 -81 39 l-37 1 1
105 1 105 57 -3 57 -3 0 44 c0 24 3 46 6 49 4 5 83 7 123 4 7 -1 18 -19 24
-41 41 -135 132 -56 125 109 -3 83 -28 134 -68 139 -22 3 -30 -3 -43 -29 -9
-17 -19 -43 -21 -58 -8 -45 -10 -47 -70 -45 -76 2 -74 2 -74 17 0 7 -9 18 -21
25 -20 13 -20 14 17 80 28 52 44 102 70 222 19 85 34 163 34 172 0 15 -102
231 -155 328 -11 19 -19 39 -20 44 -1 30 -28 6 -80 -70 -56 -82 -62 -98 -64
-153 -1 -23 -2 -23 -20 -7 -17 16 -20 15 -44 -18 -26 -33 -29 -34 -89 -33
l-63 2 0 88 c0 48 -2 87 -6 87 -3 0 -5 48 -5 106 2 108 0 117 -21 122 -10 1
-13 -22 -14 -90 -1 -51 0 -105 1 -119 1 -24 -1 -25 -44 -22 -52 4 -47 14 -48
-109 l-1 -67 -69 1 -68 1 -1 41 c0 23 0 60 1 84 1 35 -2 44 -17 48 -17 5 -19
16 -18 110 1 110 -1 119 -25 119 -22 0 -25 -15 -24 -128 l1 -103 -29 2 -28 2
0 -88 0 -88 -71 1 -70 1 1 45 c4 97 0 132 -12 130 -40 -5 -44 0 -42 54 1 30
10 69 19 88 38 72 28 226 -16 270 -24 24 -30 24 -56 0z"/>
</g>
</svg>
